PathFileType	4	(X/Y/Z)	SUBJ82_3_walk_RCNL2025.trc
DataRate	CameraRate	NumFrames	NumMarkers	Units	OrigDataRate	OrigDataStartFrame	OrigNumFrames
100	100	12	25	mm	100	197	225
Frame#	Time	R_Shoulder			L_Shoulder			C7			J_Notch			R_Elbow			L_Elbow			R_Wrist			L_Wrist			R_Asis			L_Asis			Sacral			Thoracic			Sternum			R_Thigh_Lateral			R_Knee_Lateral			R_Shank_Lateral			R_Ankle_Lateral			R_Heel			R_Toe			L_Thigh_Lateral			L_Knee_Lateral			L_Shank_Lateral			L_Ankle_Lateral			L_Heel			L_Toe		
		X1	Y1	Z1	X2	Y2	Z2	X3	Y3	Z3	X4	Y4	Z4	X5	Y5	Z5	X6	Y6	Z6	X7	Y7	Z7	X8	Y8	Z8	X9	Y9	Z9	X10	Y10	Z10	X11	Y11	Z11	X12	Y12	Z12	X13	Y13	Z13	X14	Y14	Z14	X15	Y15	Z15	X16	Y16	Z16	X17	Y17	Z17	X18	Y18	Z18	X19	Y19	Z19	X20	Y20	Z20	X21	Y21	Z21	X22	Y22	Z22	X23	Y23	Z23	X24	Y24	Z24	X25	Y25	Z25
197	1.96000000	872.065674	1396.910889	477.861481	896.476868	1395.473755	67.762650	824.574768	1487.793335	270.918701	952.812805	1376.052124	280.163971	844.290466	1061.249512	570.810852	756.978271	1072.078247	16.186422	984.886169	842.402924	539.820312	784.893951	816.051086	34.105873	934.206543	955.723267	435.414154	969.641785	979.933960	168.962296	773.843018	980.823181	259.228058	742.343018	1253.053345	265.847321	984.451721	1199.596313	288.141510	773.573181	548.548828	482.988129	749.327942	466.451752	438.696564	582.069336	313.131500	489.116394	465.882843	175.971863	390.610565	419.931793	186.862350	345.956421	536.263794	58.402077	362.213715	1026.076782	553.188904	103.153801	1054.778564	485.290894	147.949310	1092.914673	257.794281	116.078270	1109.984741	71.939659	184.105743	1069.772339	50.794361	240.002762	1251.540771	54.140770	212.503998
198	1.97000000	886.728149	1398.489868	476.114471	911.830383	1396.636719	66.029961	839.484619	1489.158813	268.935883	967.817627	1377.696777	278.464447	856.598145	1062.638062	567.813416	776.157288	1071.690796	14.044038	993.774353	841.439209	538.061157	807.637939	815.945526	30.779607	950.747437	956.325867	433.065369	984.850525	982.178589	166.705658	789.260620	981.835693	258.596619	757.655273	1254.095947	264.356903	999.889709	1201.380981	286.557709	798.141357	546.951843	483.966095	774.849792	465.243073	440.416138	602.949341	318.609192	490.300995	482.308594	185.884659	391.911072	437.840332	199.880905	346.591583	544.395813	62.552761	363.597717	1040.046021	554.471069	101.496124	1068.084717	486.419373	146.453781	1101.714355	258.111816	115.359001	1111.993042	71.994804	184.153305	1070.648193	51.671295	239.703949	1253.019531	50.830399	213.422333
199	1.98000000	901.410706	1400.247559	474.476135	927.261719	1398.026978	64.456886	854.351379	1490.727661	267.090851	982.740845	1379.461182	276.909332	868.773071	1064.198486	564.809204	795.537720	1071.531738	11.861609	1002.262909	840.575165	536.252869	830.937317	816.113617	27.372471	966.986145	957.169006	430.710846	999.734497	984.509521	164.416870	804.369873	982.988159	258.031403	772.790833	1255.427612	262.925446	1015.087524	1203.246094	285.092682	823.567444	545.438599	484.850464	801.408325	464.143280	442.000214	625.543945	323.914337	491.386505	500.573242	195.697067	392.991058	457.572815	212.433044	346.978638	554.808960	67.435463	365.379730	1052.891113	555.564148	99.919899	1080.163452	487.328186	145.057785	1109.429077	258.309357	114.639038	1113.562622	72.161179	184.246170	1071.312378	52.484360	239.429016	1254.070557	48.481697	214.132278
200	1.99000000	916.068787	1402.144775	472.960297	942.749268	1399.624512	63.057247	869.152832	1492.487793	265.400726	997.556763	1381.327759	275.515533	880.825012	1065.888306	561.826782	815.073242	1071.596436	9.640497	1010.400574	839.809692	534.400085	854.730927	816.551117	23.932648	982.898376	958.271240	428.399445	1014.313049	986.891357	162.137802	819.184814	984.286804	257.494171	787.732239	1257.032837	261.548248	1030.030396	1205.174683	283.763184	849.590454	544.153198	485.562317	828.783569	463.283051	443.378479	649.724243	328.912872	492.320618	520.648499	205.143021	393.787994	479.018402	224.141739	347.058014	567.838623	72.862473	367.524750	1064.538574	556.461060	98.448753	1090.921753	487.998322	143.779480	1115.953857	258.357117	113.935501	1114.729980	72.370514	184.382965	1071.787354	53.188484	239.197952	1254.766602	46.940296	214.656464
201	2.00000000	930.649719	1404.148071	471.579132	958.257019	1401.417847	61.837543	883.867737	1494.432007	263.878418	1012.242371	1383.292969	274.292877	892.758301	1067.668701	558.887451	834.727539	1071.881836	7.384945	1018.240936	839.146057	532.511932	878.949921	817.252533	20.509300	998.479919	959.657166	426.171722	1028.612549	989.299744	159.904892	833.729004	985.748718	256.950775	802.471436	1258.895142	260.218658	1044.716064	1207.166748	282.575317	875.939941	543.241699	486.030823	856.740417	462.797302	444.485352	675.307373	333.495087	493.049835	542.474121	213.944138	394.258606	502.035583	234.641190	346.795074	583.754456	78.578690	369.954102	1074.969360	557.178833	97.097878	1100.333252	488.443878	142.627670	1121.266602	258.263489	113.253403	1115.546387	72.575508	184.549133	1072.098511	53.765499	239.015808	1255.181641	46.034576	215.019211
202	2.01000000	945.098755	1406.232056	470.342102	973.736572	1403.404053	60.796680	898.476746	1496.554932	262.531921	1026.779907	1385.364380	273.243256	904.571289	1069.508911	556.004456	854.473328	1072.387695	5.103130	1025.838562	838.593811	530.601196	903.520233	818.214783	17.148459	1013.743652	961.352234	424.056061	1042.661499	991.719727	157.745667	848.031982	987.396667	256.377014	817.009277	1260.995239	258.929352	1059.153198	1209.234619	281.524078	902.363342	542.833313	486.203583	885.044250	462.807739	445.265778	702.066406	337.589355	493.522919	565.963440	221.826431	394.383575	526.464661	243.602890	346.187347	602.736023	84.287560	372.549774	1084.231079	557.755249	95.870644	1108.445068	488.705017	141.601059	1125.428345	258.063873	112.589539	1116.072876	72.748734	184.722473	1072.273926	54.218361	238.875183	1255.385132	45.595051	215.244171
203	2.02000000	959.365784	1408.380249	469.254730	989.130920	1405.587769	59.926258	912.962646	1498.848877	261.363647	1041.158203	1387.554565	272.360840	916.256897	1071.387939	553.183716	874.289734	1073.118408	2.807518	1033.245972	838.168549	528.682907	928.362549	819.440216	13.889592	1028.715698	963.375854	422.066132	1056.487427	994.142273	155.676590	862.125977	989.253174	255.762177	831.353943	1263.309204	257.673248	1073.359131	1211.397095	280.594391	928.649963	543.024475	486.054382	913.475220	463.406586	445.680756	729.746643	341.167175	493.695435	591.010193	228.536224	394.168030	552.142212	250.757294	345.265228	624.856873	89.681206	375.165619	1092.430542	558.240479	94.759567	1115.367554	488.836975	140.690353	1128.568970	257.807343	111.937912	1116.373047	72.879257	184.879257	1072.343018	54.564175	238.760925	1255.439209	45.469177	215.353455
204	2.03000000	973.411072	1410.582397	468.317688	1004.380798	1407.977051	59.211430	927.311218	1501.299561	260.370056	1055.373779	1389.873779	271.632904	927.803223	1073.295166	550.425598	894.157288	1074.080688	0.514405	1040.510193	837.889893	526.771637	953.390625	820.937805	10.763612	1043.431030	965.734497	420.200684	1070.113770	996.560303	153.702118	876.042480	991.333252	255.109879	845.519897	1265.806274	256.444092	1087.357178	1213.671387	279.763824	954.646667	543.867554	485.586212	941.838989	464.644531	445.711304	758.086243	344.237701	493.534515	617.497009	233.854248	393.638153	578.915833	255.907455	344.085571	650.081543	94.470406	377.643036	1099.713623	558.687378	93.750580	1121.254761	488.898468	139.882172	1130.864136	257.544464	111.294487	1116.507446	72.968231	184.999374	1072.334961	54.827515	238.655365	1255.395386	45.530647	215.367371
205	2.04000000	987.210327	1412.831421	467.526031	1019.432434	1410.577759	58.632381	941.512329	1503.884277	259.541779	1069.430054	1392.324707	271.041504	939.195740	1075.227905	547.727722	914.052795	1075.281372	-1.757283	1047.670197	837.778015	524.879303	978.507629	822.722534	7.792645	1057.929077	968.416565	418.445190	1083.559692	998.965271	151.815689	889.809875	993.638672	254.436539	859.526001	1268.447510	255.236328	1101.173706	1216.066895	279.006104	980.262695	545.367493	484.829681	969.973755	466.524597	445.359894	786.838379	346.831635	493.023499	645.303040	237.606888	392.834045	606.655701	258.933990	342.720032	678.275208	98.410561	379.829254	1106.237915	559.142151	92.828735	1126.278809	488.942230	139.163101	1132.507446	257.318604	110.659973	1116.529419	73.024414	185.069595	1072.276733	55.034962	238.542511	1255.294678	45.683369	215.304306
206	2.05000000	1000.757263	1415.119019	466.869110	1034.244507	1413.388062	58.166279	955.560730	1506.570190	258.864349	1083.336548	1394.896851	270.565491	950.419189	1077.187622	545.088379	933.945740	1076.723267	-3.987779	1054.755554	837.848541	523.012543	1003.602936	824.813293	4.991242	1072.250000	971.388916	416.775299	1096.839844	1001.344238	150.001938	903.451965	996.153625	253.767502	873.393982	1271.186890	254.045181	1114.835693	1218.579346	278.294342	1005.464905	547.485291	483.836761	997.752991	469.003326	444.648865	815.790039	348.980164	492.164215	674.311523	239.674393	391.801331	635.262634	259.791565	341.240967	709.224670	101.321075	381.594818	1112.149414	559.638367	91.983131	1130.607422	489.009064	138.522934	1133.685303	257.161407	110.040619	1116.481689	73.060394	185.084824	1072.191895	55.211338	238.410950	1255.167969	45.860878	215.180817
207	2.06000000	1014.063904	1417.431274	466.331360	1048.793579	1416.393555	57.789497	969.456787	1509.314453	258.319397	1097.107300	1397.565796	270.182373	961.459900	1079.175659	542.508301	953.796387	1078.400391	-6.158561	1061.786804	838.107758	521.170837	1028.552887	827.229340	2.368330	1086.431274	974.597351	415.161285	1109.965210	1003.679138	148.240250	916.987366	998.843140	253.132248	887.146851	1273.971924	252.866837	1128.368652	1221.189819	277.603760	1030.264404	550.146301	482.671600	1025.084473	471.997681	443.616486	844.775879	350.694733	490.976624	704.415710	239.994827	390.582977	664.671448	258.499542	339.708954	742.665710	103.096542	382.847565	1117.568115	560.194519	91.209801	1134.389038	489.125977	137.956345	1134.557251	257.091492	109.447510	1116.396973	73.089767	185.047821	1072.100464	55.377697	238.255539	1255.037109	46.022545	215.011505
208	2.07000000	1027.158691	1419.745850	465.893524	1063.076538	1419.564331	57.479790	983.206726	1512.067017	257.886597	1110.758545	1400.292603	269.870148	972.307800	1081.187744	539.992188	973.556824	1080.294922	-8.254413	1068.776001	838.548340	519.345901	1053.230988	829.986938	-0.071096	1100.505127	977.969177	413.572998	1122.945190	1005.946106	146.508652	930.429810	1001.654419	252.559250	900.807129	1276.746582	251.698776	1141.796021	1223.863647	276.913300	1054.698975	553.251709	481.399872	1051.906250	475.395874	442.310608	873.685364	351.953278	489.495483	735.524048	238.563919	389.213440	694.851196	255.129684	338.164642	778.311707	103.709084	383.541107	1122.583984	560.815552	90.512093	1137.744385	489.307098	137.463135	1135.243774	257.115845	108.895012	1116.297607	73.125450	184.967789	1072.019409	55.550766	238.077896	1254.916382	46.148022	214.809067
